# xmcd
#
# Track frame offsets:
#	150
#	20764
#	34313
#	48108
#	66466
#	84501
#	98495
#	115109
#	127657
#	142294
#	163782
#	179877
#	197216
#	211718
#	227464
#	244178
#	257768
#	276186
#	290261
#	307737
#	322135
#
# Disc length: 4514 seconds
#
# Revision: 0
# Processed by: cddbd v1.5.2PL0 Copyright (c) Steve Scherf et al.
# Submitted via: audiograbber 1.83.01
#
DISCID=3211a015
DTITLE=Various Artist - ERG NCT 172
DYEAR=2008
DGENRE=Country
TTITLE0=Sugarland - Already Gone
TTITLE1=Chris Cagle - Never Ever Gone
TTITLE2=Darryl Worley - Tequila On Ice
TTITLE3=Billy Ray Cyrus - Somebody Said A Prayer
TTITLE4=Jason Blaine - Good Day To Get Gone
TTITLE5=Jake Owen - Don't Think I Can't Love You
TTITLE6=Phil Vassar - I Would
TTITLE7=Chris Cummings - Hey What You Know
TTITLE8=Josh Gracin - Unbelievable (Ann Marie)
TTITLE9=Keith Urban - Got It Right This Time (The Celebration)
TTITLE10=Paul Brandt - Virtual Life
TTITLE11=Montgomery Gentry - Roll With Me
TTITLE12=Rehab ft Hank Williams Jr - The Bartender Song (AKA Sittin' At A Bar) 
TTITLE12=[Remix]
TTITLE13=JR Vatour - You Were There
TTITLE14=Chad Hudson - Somebody Find Me A Preacher
TTITLE15=Kristy Lee Cook - 15 Minutes Of Shame
TTITLE16=Kenny Munshaw - I Wish
TTITLE17=Trailer Choir - Rockin' The Beer Gut
TTITLE18=Dolly Parton - Shinola
TTITLE19=Jeff Griffith - Fishin' Forever
TTITLE20=Bailey Grey - Beach Weekend
EXTD=
EXTT0=
EXTT1=
EXTT2=
EXTT3=
EXTT4=
EXTT5=
EXTT6=
EXTT7=
EXTT8=
EXTT9=
EXTT10=
EXTT11=
EXTT12=
EXTT13=
EXTT14=
EXTT15=
EXTT16=
EXTT17=
EXTT18=
EXTT19=
EXTT20=
PLAYORDER=
